<svg width="119" height="24" viewBox="0 0 119 24" fill="none" xmlns="http://www.w3.org/2000/svg">
<path fill-rule="evenodd" clip-rule="evenodd" d="M6.64285 3.58803C6.64285 5.4224 5.1558 6.90945 3.32143 6.90945C1.48705 6.90945 0 5.4224 0 3.58803C0 1.75365 1.48705 0.266602 3.32143 0.266602C5.1558 0.266602 6.64285 1.75365 6.64285 3.58803ZM11.6245 6.90953C13.4589 6.90953 14.946 5.42247 14.946 3.5881C14.946 1.75373 13.4589 0.266674 11.6245 0.266674C9.79015 0.266674 8.3031 1.75373 8.3031 3.5881C8.3031 5.42247 9.79015 6.90953 11.6245 6.90953ZM17.6073 11.8916C17.6073 13.1737 18.6466 14.213 19.9287 14.213C21.2108 14.213 22.2502 13.1737 22.2502 11.8916C22.2502 10.6095 21.2108 9.57014 19.9287 9.57014C18.6466 9.57014 17.6073 10.6095 17.6073 11.8916ZM19.9287 15.213C21.7631 15.213 23.2502 13.7259 23.2502 11.8916C23.2502 10.0572 21.7631 8.57014 19.9287 8.57014C18.0944 8.57014 16.6073 10.0572 16.6073 11.8916C16.6073 13.7259 18.0944 15.213 19.9287 15.213ZM13.946 20.1952C13.946 21.4773 12.9066 22.5166 11.6245 22.5166C10.3424 22.5166 9.3031 21.4773 9.3031 20.1952C9.3031 18.9131 10.3424 17.8738 11.6245 17.8738C12.9066 17.8738 13.946 18.9131 13.946 20.1952ZM14.946 20.1952C14.946 22.0296 13.4589 23.5166 11.6245 23.5166C9.79015 23.5166 8.3031 22.0296 8.3031 20.1952C8.3031 18.3608 9.79015 16.8738 11.6245 16.8738C13.4589 16.8738 14.946 18.3608 14.946 20.1952ZM17.6073 20.1952C17.6073 18.9131 18.6466 17.8738 19.9287 17.8738C21.2108 17.8738 22.2502 18.9131 22.2502 20.1952C22.2502 21.4773 21.2108 22.5166 19.9287 22.5166C18.6466 22.5166 17.6073 21.4773 17.6073 20.1952ZM23.2502 20.1952C23.2502 22.0296 21.7631 23.5166 19.9287 23.5166C18.0944 23.5166 16.6073 22.0296 16.6073 20.1952C16.6073 18.3608 18.0944 16.8738 19.9287 16.8738C21.7631 16.8738 23.2502 18.3608 23.2502 20.1952ZM3.32143 15.213C5.1558 15.213 6.64285 13.7259 6.64285 11.8916C6.64285 10.0572 5.1558 8.57014 3.32143 8.57014C1.48705 8.57014 0 10.0572 0 11.8916C0 13.7259 1.48705 15.213 3.32143 15.213ZM13.2663 10.2507L11.4179 12.0991L9.98331 13.5337C9.56283 13.1136 9.30273 12.5329 9.30273 11.8916C9.30273 10.6095 10.3421 9.57014 11.6242 9.57014C12.2655 9.57014 12.8462 9.83024 13.2663 10.2507ZM11.7798 15.2094C13.5426 15.1288 14.9469 13.6742 14.9469 11.8915C14.9469 10.9743 14.5752 10.144 13.9741 9.5429L13.9734 9.54361C13.3723 8.94217 12.5417 8.57014 11.6242 8.57014C9.78979 8.57014 8.30273 10.0572 8.30273 11.8916C8.30273 13.7259 9.78979 15.213 11.6242 15.213C11.6763 15.213 11.7282 15.2118 11.7798 15.2094ZM21.5702 1.94654L19.7209 3.79584L18.2872 5.22954C17.8671 4.80944 17.6073 4.22911 17.6073 3.5881C17.6073 2.30601 18.6466 1.26667 19.9287 1.26667C20.5697 1.26667 21.1501 1.52648 21.5702 1.94654ZM17.5801 5.93664C16.979 5.33559 16.6073 4.50526 16.6073 3.5881C16.6073 1.75373 18.0944 0.266674 19.9287 0.266674C21.7631 0.266674 23.2502 1.75373 23.2502 3.5881C23.2502 4.84033 22.5572 5.93071 21.5338 6.49666C21.058 6.75986 20.5107 6.90968 19.9285 6.90968C19.0113 6.90968 18.1809 6.53792 17.5798 5.93686L17.5801 5.93664ZM4.96314 18.6372L3.11396 20.4864L1.68014 21.9202C1.25992 21.5001 1 20.9196 1 20.2785C1 18.9964 2.03934 17.957 3.32143 17.957C3.96258 17.957 4.54302 18.217 4.96314 18.6372ZM6.41067 19.056C5.92375 17.8266 4.72414 16.957 3.32143 16.957C1.48705 16.957 0 18.4441 0 20.2785C0 21.1958 0.371851 22.0262 0.973037 22.6273L0.972945 22.6274C1.574 23.2284 2.40436 23.6002 3.32155 23.6002C5.15592 23.6002 6.64297 22.1131 6.64297 20.2788C6.64297 19.847 6.56058 19.4344 6.41067 19.056Z" fill="#0194FF"/>
<path d="M54.4831 23.3333C54.4831 23.5556 54.2498 23.6667 53.7831 23.6667H53.4164C53.1053 23.6667 52.5387 23.6556 51.7164 23.6333C50.8942 23.6111 50.2609 23.6 49.8164 23.6C49.1498 23.6 48.372 23.6111 47.4831 23.6333C46.572 23.6333 45.972 23.6333 45.6831 23.6333H45.4498C44.9831 23.6333 44.7498 23.5333 44.7498 23.3333C44.7498 23.1111 45.072 23 45.7164 23C46.8498 23 47.5387 22.8778 47.7831 22.6333C47.8942 22.5222 47.9498 21.7778 47.9498 20.4V3.13333C47.9498 3.15555 47.8276 3.54444 47.5831 4.3C46.6942 6.98889 45.4053 11.0333 43.7164 16.4333L42.1498 21.7333C41.8387 22.7778 41.6164 23.3 41.4831 23.3C41.3276 23.3 41.1609 23.0333 40.9831 22.5C40.3387 20.4778 38.5164 15.4333 35.5164 7.36667L34.1831 3.8C34.2053 4.22222 34.2164 4.8 34.2164 5.53333V16.3667C34.2164 20.4333 34.2498 22.4889 34.3164 22.5333C34.472 22.8222 35.0053 22.9667 35.9164 22.9667C36.6498 22.9667 37.0164 23.0667 37.0164 23.2667C37.0164 23.4889 36.7831 23.6 36.3164 23.6C36.0276 23.6 35.7609 23.5889 35.5164 23.5667C35.2053 23.5444 34.9276 23.5333 34.6831 23.5333L30.8498 23.6333C30.4498 23.6333 30.2498 23.5333 30.2498 23.3333C30.2498 23.1111 30.8831 22.9889 32.1498 22.9667C32.6831 22.9667 32.9942 22.8778 33.0831 22.7C33.172 22.5222 33.2164 21.9444 33.2164 20.9667V5C33.2164 3.15555 33.1942 2.15555 33.1498 2C33.0609 1.68889 32.872 1.47778 32.5831 1.36666C32.2942 1.25555 31.672 1.16667 30.7164 1.1C30.3609 1.07778 30.1831 0.977776 30.1831 0.799999C30.1831 0.555554 30.5053 0.433331 31.1498 0.433331C31.2387 0.433331 31.4276 0.444443 31.7164 0.466666H33.4498C34.7609 0.466666 35.6831 0.455555 36.2164 0.433331C36.3276 0.72222 36.9831 2.46666 38.1831 5.66666C38.6942 7 40.1276 10.8889 42.4831 17.3333C42.9053 15.8889 43.3387 14.4667 43.7831 13.0667L47.3164 2.03333C47.5164 1.38889 47.6942 0.855553 47.8498 0.433331L52.8498 0.399998C53.5831 0.399998 54.0053 0.433332 54.1164 0.499999C54.2276 0.566665 54.2831 0.666665 54.2831 0.799999C54.2831 1.02222 54.0942 1.13333 53.7164 1.13333C53.0942 1.13333 52.672 1.15555 52.4498 1.2C51.9164 1.28889 51.5498 1.46667 51.3498 1.73333C51.2387 1.88889 51.1831 3.18889 51.1831 5.63333V21.1333C51.1831 22.0222 51.272 22.5444 51.4498 22.7C51.7387 22.9 52.4609 23 53.6164 23H53.8164C54.2609 23 54.4831 23.1111 54.4831 23.3333Z" fill="#0194FF"/>
<path d="M69.4125 22.4667C69.4125 22.6222 69.1681 22.7111 68.6792 22.7333C66.9459 22.8444 65.4236 23.2222 64.1125 23.8667C64.0236 23.9111 63.9459 23.9333 63.8792 23.9333C63.7459 23.9333 63.6792 23.8444 63.6792 23.6667L63.7125 21.8C62.6903 23.2667 61.257 24 59.4125 24C57.7681 24 56.5903 23.5222 55.8792 22.5667C55.5903 22.1667 55.4125 21.8 55.3459 21.4667C55.3014 21.1333 55.2792 20.2333 55.2792 18.7667V11.1333C55.2792 10.3556 55.2348 9.9 55.1459 9.76667C55.057 9.63333 54.757 9.55555 54.2459 9.53333L53.8125 9.56666C53.2125 9.61111 52.9125 9.52222 52.9125 9.3C52.9125 9.14444 53.1014 9.06667 53.4792 9.06667C53.8792 9.06667 54.457 9.08889 55.2125 9.13333C55.5903 9.15555 55.8125 9.16667 55.8792 9.16667C56.657 9.16667 57.3792 9.13333 58.0459 9.06667V18.3667C58.0459 20.0778 58.157 21.2111 58.3792 21.7667C58.7348 22.6333 59.457 23.0667 60.5459 23.0667C61.7236 23.0667 62.5903 22.5778 63.1459 21.6C63.5459 20.8889 63.7459 19.7556 63.7459 18.2V13.0333C63.7459 12.2778 63.7348 11.7111 63.7125 11.3333L63.6459 10.2333C63.6236 9.9 63.5459 9.71111 63.4125 9.66667C63.3014 9.6 63.057 9.56666 62.6792 9.56666C61.7459 9.58889 61.2792 9.48889 61.2792 9.26667C61.2792 9.13333 61.5125 9.06667 61.9792 9.06667H62.2792C62.457 9.08889 63.0459 9.1 64.0459 9.1C65.3792 9.1 66.2014 9.08889 66.5125 9.06667V18.3667C66.5125 19.9667 66.5459 20.9778 66.6125 21.4C66.6792 21.8222 66.8459 22.0667 67.1125 22.1333C67.4014 22.2 68.0348 22.2333 69.0125 22.2333C69.2792 22.2333 69.4125 22.3111 69.4125 22.4667Z" fill="#0194FF"/>
<path d="M78.5203 21.6333C78.5203 21.8333 78.2426 22.1889 77.687 22.7C76.7315 23.5667 75.5981 24 74.287 24C73.0648 24 72.1426 23.6889 71.5203 23.0667C71.1648 22.7111 70.987 21.6667 70.987 19.9333V10C70.9648 9.77778 70.8426 9.65555 70.6203 9.63333H69.3537C68.8648 9.63333 68.6203 9.55556 68.6203 9.4C68.6203 9.24444 68.7426 9.15555 68.987 9.13333C70.7203 8.97778 72.0759 8.13333 73.0537 6.6C73.187 6.4 73.3537 6.3 73.5537 6.3C73.7092 6.3 73.787 6.37778 73.787 6.53333V6.66667C73.7648 6.77778 73.7537 6.96667 73.7537 7.23333C73.7537 8.16667 73.7981 8.76667 73.887 9.03333C74.087 9.07778 74.4203 9.1 74.887 9.1C76.1092 9.1 76.9203 9.04444 77.3203 8.93333C77.4092 8.91111 77.487 8.9 77.5537 8.9C77.7315 8.9 77.8203 9 77.8203 9.2C77.8203 9.53333 76.9203 9.7 75.1203 9.7C74.8092 9.7 74.3537 9.68889 73.7537 9.66667V15.8333C73.7537 18.9444 73.8315 20.9 73.987 21.7C74.1426 22.4778 74.6537 22.8667 75.5203 22.8667C76.2537 22.8667 77.0759 22.4556 77.987 21.6333C78.0759 21.5222 78.1759 21.4667 78.287 21.4667C78.4426 21.4667 78.5203 21.5222 78.5203 21.6333Z" fill="#0194FF"/>
<path d="M95.893 22.4667C95.893 22.6222 95.6486 22.7111 95.1597 22.7333C93.4263 22.8444 91.9041 23.2222 90.593 23.8667C90.5041 23.9111 90.4263 23.9333 90.3597 23.9333C90.2263 23.9333 90.1597 23.8444 90.1597 23.6667L90.193 21.8C89.1708 23.2667 87.7374 24 85.893 24C84.2486 24 83.0708 23.5222 82.3597 22.5667C82.0708 22.1667 81.893 21.8 81.8263 21.4667C81.7819 21.1333 81.7597 20.2333 81.7597 18.7667V11.1333C81.7597 10.3556 81.7152 9.9 81.6263 9.76667C81.5374 9.63333 81.2374 9.55555 80.7263 9.53333L80.293 9.56666C79.693 9.61111 79.393 9.52222 79.393 9.3C79.393 9.14444 79.5819 9.06667 79.9597 9.06667C80.3597 9.06667 80.9375 9.08889 81.693 9.13333C82.0708 9.15555 82.293 9.16667 82.3597 9.16667C83.1374 9.16667 83.8597 9.13333 84.5263 9.06667V18.3667C84.5263 20.0778 84.6375 21.2111 84.8597 21.7667C85.2152 22.6333 85.9374 23.0667 87.0263 23.0667C88.2041 23.0667 89.0708 22.5778 89.6263 21.6C90.0263 20.8889 90.2263 19.7556 90.2263 18.2V13.0333C90.2263 12.2778 90.2152 11.7111 90.193 11.3333L90.1263 10.2333C90.1041 9.9 90.0263 9.71111 89.893 9.66667C89.7819 9.6 89.5374 9.56666 89.1597 9.56666C88.2263 9.58889 87.7597 9.48889 87.7597 9.26667C87.7597 9.13333 87.993 9.06667 88.4597 9.06667H88.7597C88.9375 9.08889 89.5263 9.1 90.5263 9.1C91.8597 9.1 92.6819 9.08889 92.993 9.06667V18.3667C92.993 19.9667 93.0263 20.9778 93.093 21.4C93.1597 21.8222 93.3263 22.0667 93.593 22.1333C93.8819 22.2 94.5152 22.2333 95.493 22.2333C95.7597 22.2333 95.893 22.3111 95.893 22.4667Z" fill="#0194FF"/>
<path d="M110.201 22.1C110.201 22.4778 109.801 22.8778 109.001 23.3C108.223 23.7 107.467 23.9 106.734 23.9C105.201 23.9 104.401 23.1111 104.334 21.5333C103.49 23.1778 102.179 24 100.401 24C99.4453 24 98.6564 23.7222 98.0341 23.1667C97.4119 22.5889 97.1008 21.8556 97.1008 20.9667C97.1008 19.1444 98.2008 17.7 100.401 16.6333C101.156 16.2778 102.467 15.9222 104.334 15.5667V14.7333C104.334 12.7778 104.234 11.4889 104.034 10.8667C103.679 9.73333 102.879 9.16667 101.634 9.16667C100.856 9.16667 100.201 9.37778 99.6675 9.8C99.1564 10.2222 98.9008 10.7556 98.9008 11.4C98.9008 11.5778 99.0341 11.6667 99.3008 11.6667C99.5897 11.6667 99.8453 11.8 100.067 12.0667C100.29 12.3333 100.401 12.6333 100.401 12.9667C100.401 13.9444 99.9119 14.4333 98.9342 14.4333C98.423 14.4333 98.0008 14.2667 97.6675 13.9333C97.3342 13.5778 97.1675 13.1333 97.1675 12.6C97.1675 11.5556 97.5786 10.6556 98.4008 9.9C99.3119 9.07778 100.579 8.66667 102.201 8.66667C104.645 8.66667 106.145 9.33333 106.701 10.6667C106.901 11.1778 107.001 12.1889 107.001 13.7V19.9333C107.001 20.9556 107.012 21.5556 107.034 21.7333C107.145 22.5333 107.467 22.9333 108.001 22.9333C108.623 22.9333 109.134 22.7111 109.534 22.2667C109.756 22.0222 109.923 21.9 110.034 21.9C110.145 21.9 110.201 21.9667 110.201 22.1ZM104.334 18.5667V16.1333C102.667 16.5111 101.467 17.0111 100.734 17.6333C100.023 18.2333 99.6675 19.0444 99.6675 20.0667C99.6675 20.7778 99.8675 21.3667 100.267 21.8333C100.69 22.2778 101.212 22.5 101.834 22.5C102.79 22.5 103.556 21.9667 104.134 20.9C104.267 20.6556 104.334 19.8778 104.334 18.5667Z" fill="#0194FF"/>
<path d="M118.016 23.3667C118.016 23.5667 117.872 23.6667 117.583 23.6667H117.183C117.138 23.6667 116.55 23.6444 115.416 23.6L114.383 23.5667C114.205 23.5667 113.316 23.6 111.716 23.6667C111.583 23.6889 111.45 23.7 111.316 23.7C110.983 23.7222 110.816 23.6222 110.816 23.4C110.816 23.2444 110.938 23.1667 111.183 23.1667H112.05C112.672 23.1667 112.983 23.0333 112.983 22.7667C113.005 22.6333 113.016 21.7667 113.016 20.1667V3.2C113.016 2.46667 112.994 2.06667 112.95 2C112.883 1.82222 112.705 1.73333 112.416 1.73333H112.15L111.216 1.76667C110.905 1.76667 110.75 1.66667 110.75 1.46667C110.75 1.28889 111.027 1.18889 111.583 1.16666C112.65 1.1 113.638 0.855553 114.55 0.433331L115.25 0.0999983L115.516 0C115.694 0.644444 115.772 1.62222 115.75 2.93333L115.716 5.3L115.75 21.6333C115.75 22.3 115.761 22.7 115.783 22.8333C115.805 22.9444 115.883 23.0222 116.016 23.0667C116.038 23.0889 116.45 23.1111 117.25 23.1333C117.761 23.1333 118.016 23.2111 118.016 23.3667Z" fill="#0194FF"/>
</svg>
